# xmcd
# 
# Track frame offsets:
#     150
#     26752
#     47119
#     68451
#     84762
#     103920
#     118108
#     144304
#     163053
#     181940
#     198284
# 
# Disc length: 2878
# 
# Revision: 1
# Processed by: cddbd v1.5.2PL0 Copyright (c) Steve Scherf et al.
# Submitted via: BonkEnc v1.0.8
# 
DISCID=8d0b3c0b
DTITLE=Various Artist - Christmas In Bluestown
DYEAR=2002
DGENRE=Blues
TTITLE0=Notodden Blues Band and Torhild Sivertsen - Mery Christmas Baby
TTITLE1=Terry Lehns - The Mule Driver's Story
TTITLE2=Margit Bakkens Bluesorkester - Please Come Home For Christmas
TTITLE3=Spoonful Of Blues - Xmas Time In The Hood
TTITLE4=Seasick Steve and the Level Devils - Prison Xmas Blues
TTITLE5=Tiger City Jukes - WATCH OUT! Santa's Been Drinking
TTITLE6=Amund Maarud Band - 12 Empty Bottles And 24 Doubts
TTITLE7=The R&B Express - I'll Be Home For Christmas
TTITLE8=Kristin Berglund Band - The Invisible Soul
TTITLE9=Up to Fly - Merry Xmas To You
TTITLE10=Rita Engedalen and Backbone - It's Christmas Time
EXTD=Updated with the various artists, fixed a few typos
EXTT0=
EXTT1=
EXTT2=
EXTT3=
EXTT4=
EXTT5=
EXTT6=
EXTT7=
EXTT8=
EXTT9=
EXTT10=
PLAYORDER=
